<svg width="38" height="38" viewBox="0 0 38 38" fill="none" xmlns="http://www.w3.org/2000/svg">
<path d="M33.5833 0.25H4.41667C2.11458 0.25 0.25 2.11458 0.25 4.41667V33.5833C0.25 35.8854 2.11458 37.75 4.41667 37.75H33.5833C35.8854 37.75 37.75 35.8854 37.75 33.5833V4.41667C37.75 2.11458 35.8854 0.25 33.5833 0.25ZM12.75 29.4167H7.49375V14.8333H12.75V29.4167ZM10.0292 12.1604C8.42292 12.1604 7.35 11.0896 7.35 9.66042C7.35 8.23125 8.42083 7.16042 10.2062 7.16042C11.8125 7.16042 12.8854 8.23125 12.8854 9.66042C12.8854 11.0896 11.8146 12.1604 10.0292 12.1604ZM31.5 29.4167H26.4125V21.4458C26.4125 19.2417 25.0562 18.7333 24.5479 18.7333C24.0396 18.7333 22.3437 19.0729 22.3437 21.4458C22.3437 21.7854 22.3437 29.4167 22.3437 29.4167H17.0875V14.8333H22.3437V16.8687C23.0208 15.6812 24.3771 14.8333 26.9208 14.8333C29.4646 14.8333 31.5 16.8687 31.5 21.4458V29.4167Z" fill="black"/>
</svg>
